<?xml version="1.0" encoding="UTF-8"?>
<svg width="1440px" height="1024px" viewBox="0 0 1440 1024" version="1.1" xmlns="http://www.w3.org/2000/svg" xmlns:xlink="http://www.w3.org/1999/xlink">
  <defs>
    <linearGradient x1="0%" y1="0%" x2="100%" y2="100%" id="jobfitGradient">
      <stop stop-color="#84cc16" stop-opacity="0.2" offset="0%"></stop>
      <stop stop-color="#65a30d" stop-opacity="0.1" offset="100%"></stop>
    </linearGradient>
  </defs>
  <g stroke="none" stroke-width="1" fill="none" fill-rule="evenodd">
    <g stroke="#84cc16" stroke-width="1" opacity="0.12">
      <!-- Horizontal lines -->
      <line x1="0" y1="32" x2="1440" y2="32"></line>
      <line x1="0" y1="96" x2="1440" y2="96"></line>
      <line x1="0" y1="160" x2="1440" y2="160"></line>
      <line x1="0" y1="224" x2="1440" y2="224"></line>
      <line x1="0" y1="288" x2="1440" y2="288"></line>
      <line x1="0" y1="352" x2="1440" y2="352"></line>
      <line x1="0" y1="416" x2="1440" y2="416"></line>
      <line x1="0" y1="480" x2="1440" y2="480"></line>
      <line x1="0" y1="544" x2="1440" y2="544"></line>
      <line x1="0" y1="608" x2="1440" y2="608"></line>
      <line x1="0" y1="672" x2="1440" y2="672"></line>
      <line x1="0" y1="736" x2="1440" y2="736"></line>
      <line x1="0" y1="800" x2="1440" y2="800"></line>
      <line x1="0" y1="864" x2="1440" y2="864"></line>
      <line x1="0" y1="928" x2="1440" y2="928"></line>
      <line x1="0" y1="992" x2="1440" y2="992"></line>
      
      <!-- Vertical lines -->
      <line x1="32" y1="0" x2="32" y2="1024"></line>
      <line x1="96" y1="0" x2="96" y2="1024"></line>
      <line x1="160" y1="0" x2="160" y2="1024"></line>
      <line x1="224" y1="0" x2="224" y2="1024"></line>
      <line x1="288" y1="0" x2="288" y2="1024"></line>
      <line x1="352" y1="0" x2="352" y2="1024"></line>
      <line x1="416" y1="0" x2="416" y2="1024"></line>
      <line x1="480" y1="0" x2="480" y2="1024"></line>
      <line x1="544" y1="0" x2="544" y2="1024"></line>
      <line x1="608" y1="0" x2="608" y2="1024"></line>
      <line x1="672" y1="0" x2="672" y2="1024"></line>
      <line x1="736" y1="0" x2="736" y2="1024"></line>
      <line x1="800" y1="0" x2="800" y2="1024"></line>
      <line x1="864" y1="0" x2="864" y2="1024"></line>
      <line x1="928" y1="0" x2="928" y2="1024"></line>
      <line x1="992" y1="0" x2="992" y2="1024"></line>
      <line x1="1056" y1="0" x2="1056" y2="1024"></line>
      <line x1="1120" y1="0" x2="1120" y2="1024"></line>
      <line x1="1184" y1="0" x2="1184" y2="1024"></line>
      <line x1="1248" y1="0" x2="1248" y2="1024"></line>
      <line x1="1312" y1="0" x2="1312" y2="1024"></line>
      <line x1="1376" y1="0" x2="1376" y2="1024"></line>
      <line x1="1440" y1="0" x2="1440" y2="1024"></line>
    </g>
    
    <!-- Accent circles -->
    <circle cx="160" cy="160" r="8" fill="#84cc16" opacity="0.5"></circle>
    <circle cx="480" cy="288" r="8" fill="#84cc16" opacity="0.5"></circle>
    <circle cx="800" cy="416" r="8" fill="#84cc16" opacity="0.5"></circle>
    <circle cx="1120" cy="544" r="8" fill="#84cc16" opacity="0.5"></circle>
    <circle cx="288" cy="672" r="8" fill="#84cc16" opacity="0.5"></circle>
    <circle cx="608" cy="800" r="8" fill="#84cc16" opacity="0.5"></circle>
    <circle cx="928" cy="928" r="8" fill="#84cc16" opacity="0.5"></circle>
    
    <!-- Decorative elements -->
    <path d="M0,0 L1440,1024" stroke="#84cc16" stroke-width="1" opacity="0.1"></path>
    <path d="M1440,0 L0,1024" stroke="#84cc16" stroke-width="1" opacity="0.1"></path>
    
    <!-- Gradient overlay -->
    <rect x="0" y="0" width="1440" height="1024" fill="url(#jobfitGradient)"></rect>
  </g>
</svg> 