<?xml version="1.0" encoding="UTF-8"?>
<svg width="24" height="24" viewBox="0 0 24 24" fill="none" xmlns="http://www.w3.org/2000/svg">
  <path fill-rule="evenodd" clip-rule="evenodd" d="M12 2C6.477 2 2 6.477 2 12C2 16.418 4.865 20.166 8.839 21.489C9.339 21.581 9.521 21.276 9.521 21.012C9.521 20.775 9.512 20.064 9.508 19.192C6.726 19.822 6.139 17.81 6.139 17.81C5.685 16.683 5.028 16.379 5.028 16.379C4.132 15.759 5.097 15.771 5.097 15.771C6.094 15.841 6.622 16.8 6.622 16.8C7.521 18.357 8.97 17.857 9.539 17.603C9.631 16.947 9.889 16.448 10.175 16.163C7.955 15.878 5.619 15.019 5.619 11.145C5.619 10.034 6.011 9.128 6.641 8.424C6.536 8.174 6.192 7.209 6.741 5.912C6.741 5.912 7.587 5.646 9.497 6.862C10.294 6.64 11.15 6.529 12 6.525C12.85 6.529 13.707 6.64 14.504 6.862C16.413 5.646 17.257 5.912 17.257 5.912C17.808 7.209 17.464 8.174 17.359 8.424C17.991 9.128 18.38 10.034 18.38 11.145C18.38 15.029 16.04 15.876 13.813 16.155C14.172 16.506 14.495 17.204 14.495 18.269C14.495 19.784 14.482 20.681 14.482 21.012C14.482 21.279 14.661 21.587 15.17 21.488C19.139 20.162 22 16.416 22 12C22 6.477 17.523 2 12 2Z" fill="#24292E"/>
</svg> 