<?xml version="1.0" encoding="UTF-8"?>
<svg width="24" height="24" viewBox="0 0 24 24" fill="none" xmlns="http://www.w3.org/2000/svg">
  <path d="M22.56 12.25C22.56 11.47 22.49 10.72 22.36 10H12V14.255H17.92C17.655 15.63 16.89 16.795 15.725 17.525V20.335H19.28C21.36 18.42 22.56 15.6 22.56 12.25Z" fill="#4285F4"/>
  <path d="M12 23C14.97 23 17.46 22.015 19.28 20.335L15.725 17.525C14.74 18.195 13.48 18.58 12 18.58C9.235 18.58 6.895 16.715 6.025 14.25H2.36V17.14C4.16 20.655 7.8 23 12 23Z" fill="#34A853"/>
  <path d="M6.025 14.25C5.79 13.57 5.655 12.835 5.655 12C5.655 11.165 5.79 10.43 6.025 9.75V6.86H2.36C1.605 8.43 1.16 10.16 1.16 12C1.16 13.84 1.605 15.57 2.36 17.14L6.025 14.25Z" fill="#FBBC05"/>
  <path d="M12 5.42C13.525 5.42 14.9 5.955 15.975 6.975L19.12 3.83C17.455 2.265 14.965 1.27 12 1.27C7.8 1.27 4.16 3.615 2.36 7.13L6.025 10.02C6.895 7.555 9.235 5.42 12 5.42Z" fill="#EA4335"/>
</svg> 